<svg xmlns="http://www.w3.org/2000/svg" viewBox="0 0 512 512"><!--!Font Awesome Free 6.5.1 by @fontawesome - https://fontawesome.com License - https://fontawesome.com/license/free Copyright 2024 Fonticons, Inc.--><path d="M410.3 231l11.3-11.3-33.9-33.9-62.1-62.1L291.7 89.8l-11.3 11.3-22.6 22.6L58.6 322.9c-10.4 10.4-18 23.3-22.2 37.4L1 480.7c-2.5 8.4-.2 17.5 6.1 23.7s15.3 8.5 23.7 6.1l120.3-35.4c14.1-4.2 27-11.8 37.4-22.2L386 256h24.3c46.8 0 88.6-35.2 92.6-81.8 1.9-22.6-6-45.5-22.1-61.9l-61.9-61.9C402.5 33.9 379.7 26 357.1 27.9 310.5 31.9 275.3 73.7 275.3 120.5V144.8L410.3 231zM195 440c-2.8 2.8-6.6 4.6-10.6 4.9l-83 14.5 14.5-83c.3-4 2.1-7.8 4.9-10.6l165.7-165.7 74.5 74.5L195 440zm217.4-192l-51.4-51.4 1.3-1.3c7.8-7.8 19.3-11.1 30.1-8.5 22.9 5.3 40.5 22.9 45.8 45.8 2.6 10.8-.7 22.3-8.5 30.1l-1.3 1.3-16 16z"/></svg>
